Coordinates
version=1
nRows=14
nColumns=38
inDegrees=no

Units are S.I. units (second, meters, Newtons, ...)
If the header above contains a line with 'inDegrees', this indicates whether rotational values are in degrees (yes) or radians (no).

endheader
time	pelvis_tilt	pelvis_list	pelvis_rotation	pelvis_tx	pelvis_ty	pelvis_tz	hip_flexion_r	hip_adduction_r	hip_rotation_r	knee_angle_r	ankle_angle_r	subtalar_angle_r	mtp_angle_r	hip_flexion_l	hip_adduction_l	hip_rotation_l	knee_angle_l	ankle_angle_l	subtalar_angle_l	mtp_angle_l	lumbar_extension	lumbar_bending	lumbar_rotation	arm_flex_r	arm_add_r	arm_rot_r	elbow_flex_r	pro_sup_r	wrist_flex_r	wrist_dev_r	arm_flex_l	arm_add_l	arm_rot_l	elbow_flex_l	pro_sup_l	wrist_flex_l	wrist_dev_l
1.21	-3.11656	1.332	-1.42934	0.70329	1.27033	0.950191	0.260322	-0.13654	-0.156718	1.29893	-0.351292	0	0	-0.181655	-0.0224332	-0.306389	0.511767	-0.0759048	0	0	-0.3915	0.134771	0.282392	-0.656614	-0.389603	-0.108027	1.01462	1.05865	0	0	0.270755	0.0109239	0.31273	0	1.5708	0	0
1.22	-3.11294	1.33068	-1.42764	0.702516	1.27741	0.949932	0.275221	-0.141918	-0.165216	1.27348	-0.33936	0	0	-0.194148	-0.0225667	-0.300828	0.505671	-0.0723411	0	0	-0.394766	0.135474	0.279952	-0.654838	-0.392044	-0.106369	1.01643	1.05387	0	0	0.276249	0.012872	0.316275	0	1.5708	0	0
1.23	-3.10526	1.3299	-1.43011	0.701817	1.28457	0.949407	0.289463	-0.150205	-0.177523	1.24677	-0.329238	0	0	-0.205334	-0.0224532	-0.298953	0.501664	-0.0684599	0	0	-0.397392	0.135216	0.27809	-0.653791	-0.393991	-0.10474	1.01824	1.04901	0	0	0.281859	0.0148366	0.320044	0	1.5708	0	0
1.24	-3.09049	1.33069	-1.43808	0.700973	1.29212	0.948541	0.303357	-0.165006	-0.197393	1.22038	-0.32083	0	0	-0.214586	-0.0211173	-0.297515	0.499394	-0.0640402	0	0	-0.397529	0.133731	0.274552	-0.65355	-0.394595	-0.103515	1.01914	1.04386	0	0	0.286529	0.0162632	0.323857	0	1.5708	0	0
1.25	-3.06876	1.33229	-1.45209	0.700006	1.3	0.947411	0.316257	-0.187977	-0.22985	1.19576	-0.314405	0	0	-0.222992	-0.0183944	-0.296869	0.498213	-0.0602549	0	0	-0.396135	0.130987	0.26934	-0.653512	-0.393992	-0.102442	1.01916	1.03828	0	0	0.290057	0.0171339	0.32784	0	1.5708	0	0
1.26	-3.0516	1.33344	-1.46562	0.699423	1.30733	0.946333	0.328034	-0.204289	-0.252385	1.16645	-0.308101	0	0	-0.230741	-0.0157912	-0.29771	0.49824	-0.0567799	0	0	-0.397189	0.127954	0.267101	-0.651363	-0.395044	-0.100857	1.0191	1.03288	0	0	0.294421	0.0185761	0.331489	0	1.5708	0	0
1.27	-3.03566	1.33563	-1.4787	0.699028	1.31469	0.945179	0.338752	-0.215492	-0.269006	1.13323	-0.299735	0	0	-0.236777	-0.0136911	-0.29925	0.499216	-0.0531335	0	0	-0.397451	0.124609	0.265516	-0.64813	-0.396263	-0.0981086	1.01756	1.02793	0	0	0.298685	0.0197476	0.334629	0	1.5708	0	0
1.28	-3.01465	1.34134	-1.49351	0.698609	1.32228	0.943929	0.349316	-0.229185	-0.290509	1.09788	-0.288232	0	0	-0.237717	-0.0116778	-0.299568	0.501126	-0.0491341	0	0	-0.409563	0.122712	0.270093	-0.651178	-0.395304	-0.0955674	1.01066	1.02321	0	0	0.279798	0.00786563	0.336067	0	1.56986	0	0
1.29	-3.00087	1.34556	-1.50684	0.698335	1.3302	0.94229	0.358875	-0.237812	-0.309817	1.06268	-0.2724	0	0	-0.242342	-0.00987365	-0.301812	0.503789	-0.0445605	0	0	-0.391983	0.117943	0.255726	-0.638897	-0.399013	-0.0906325	1.01313	1.01967	0	0	0.301742	0.0186998	0.336316	0	1.5708	0	0
1.3	-2.9823	1.35189	-1.5232	0.698247	1.33805	0.940675	0.368929	-0.244624	-0.325293	1.02608	-0.251977	0	0	-0.243479	-0.00757042	-0.302478	0.506796	-0.0395124	0	0	-0.385417	0.1133	0.254435	-0.634921	-0.398893	-0.0855486	1.00758	1.01587	0	0	0.304758	0.0193149	0.337369	0	1.5708	0	0
1.31	-2.96267	1.35969	-1.54211	0.698563	1.34577	0.939161	0.37973	-0.249836	-0.338813	0.988153	-0.228417	0	0	-0.242337	-0.0051769	-0.304412	0.509228	-0.0343289	0	0	-0.395207	0.110359	0.262505	-0.636897	-0.397949	-0.0823427	0.999941	1.01115	0	0	0.284827	0.00688398	0.336886	0	1.56981	0	0
1.32	-2.94905	1.36501	-1.55874	0.69887	1.35417	0.937296	0.387131	-0.254444	-0.359901	0.952258	-0.203547	0	0	-0.246525	-0.00341757	-0.307088	0.511812	-0.0292374	0	0	-0.376067	0.104817	0.250831	-0.624934	-0.401077	-0.0767951	1.00187	1.00748	0	0	0.305006	0.0167611	0.335903	0	1.5708	0	0
1.33	-2.9278	1.3727	-1.5777	0.698963	1.36286	0.935482	0.39316	-0.262425	-0.388829	0.917377	-0.174201	0	0	-0.246953	-0.00147869	-0.304091	0.514347	-0.0232059	0	0	-0.366251	0.100048	0.248171	-0.620584	-0.400432	-0.069212	0.994053	1.00296	0	0	0.305259	0.0157953	0.33588	0	1.5708	0	0
1.34	-2.91124	1.38313	-1.59338	0.699217	1.37167	0.933616	0.400878	-0.267476	-0.419832	0.881359	-0.126581	0	0	-0.244112	0.000636206	-0.29654	0.517201	-0.00918642	0	0	-0.352494	0.0953806	0.24013	-0.607833	-0.4112	-0.0379432	0.980997	0.978138	0	0	0.301344	0.0118767	0.332102	0	1.5708	0	0
